<svg id="Group_2281" data-name="Group 2281" xmlns="http://www.w3.org/2000/svg" xmlns:xlink="http://www.w3.org/1999/xlink" width="51.426" height="61.979" viewBox="0 0 51.426 61.979">
                        <defs>
                            <clipPath id="clip-path-flex-d">
                                <rect id="Rectangle_1943" data-name="Rectangle 1943" width="51.426" height="61.979" fill="none"/>
                            </clipPath>
                        </defs>
                        <path id="Path_1634" data-name="Path 1634" d="M0,85.53l22.533.037,1.977-3.3-18.3-.077Z" transform="translate(0 -37.023)"/>
                        <path id="Path_1635" data-name="Path 1635" d="M60.553,88.288h.19l-.134-.1Z" transform="translate(-27.277 -39.725)"/>
                        <rect id="Rectangle_1939" data-name="Rectangle 1939" width="5.187" height="11.317" transform="translate(11.011 28.981)"/>
                        <g id="Group_2280" data-name="Group 2280" transform="translate(0 0)">
                            <g id="Group_2279" data-name="Group 2279" clip-path="url(#clip-path-flex-d)">
                                <path id="Path_1636" data-name="Path 1636" d="M31.713.425a.652.652,0,0,0-.33-.371A.544.544,0,0,0,31.152,0H6.425a.551.551,0,0,0-.232.055.644.644,0,0,0-.329.371.8.8,0,0,0-.049.262V42.955H2.622a.693.693,0,0,0,0,1.375H6.928V1.432H30.668V35.94l1.094-2.025V.687a.8.8,0,0,0-.049-.262M7.793,2.308V44.331h18.34l.661-1.223H9.476V4.639a.574.574,0,0,1,.574-.574H27.525a.574.574,0,0,1,.574.574V40.692l1.7-3.15V2.308Z" transform="translate(-0.906 0)"/>
                                <line id="Line_302" data-name="Line 302" x1="0.124" y1="0.023" transform="translate(27.439 53.017)" fill="#fff"/>
                                <path id="Path_1637" data-name="Path 1637" d="M60.742,88.288h-.19l.056-.1Z" transform="translate(-27.277 -39.725)" fill="#fff"/>
                                <path id="Path_1638" data-name="Path 1638" d="M45.47,47.511a.98.98,0,1,0,.98.98.98.98,0,0,0-.98-.98" transform="translate(-20.041 -21.402)"/>
                                <rect id="Rectangle_1940" data-name="Rectangle 1940" width="5.187" height="18.034" transform="translate(11.011 7.005)"/>
                                <rect id="Rectangle_1941" data-name="Rectangle 1941" width="5.187" height="18.034" transform="translate(19.436 7.005)"/>
                                <rect id="Rectangle_1942" data-name="Rectangle 1942" width="5.187" height="11.317" transform="translate(19.566 28.981)"/>
                                <path id="Path_1639" data-name="Path 1639" d="M26.926,49.381h5.917V47.947H26.926Zm3.088-.312-2.53-.053,2.037-.247a3.33,3.33,0,0,1,.963.02l2.02.333Z" transform="translate(-12.129 -21.598)"/>
                                <path id="Path_1640" data-name="Path 1640" d="M54.07,66.251l-.034.054c-.466.756-.919,1.52-1.366,2.286-.082.139-.164.279-.245.418l-.2.342c-.433.76-.862,1.522-1.277,2.292l-.061.113q-.3.546-.581,1.094c-.295.564-.581,1.133-.856,1.708q.579-.841,1.12-1.705c.2-.312.393-.627.587-.942q.082-.133.162-.266c.223-.36.44-.724.658-1.088.081-.137.162-.275.243-.414.148-.251.295-.5.441-.753l.106-.182q.659-1.148,1.294-2.306c.081-.147.159-.293.239-.441.5-.924.986-1.853,1.437-2.8-.583.85-1.133,1.718-1.673,2.593m0,0-.034.054c-.466.756-.919,1.52-1.366,2.286-.082.139-.164.279-.245.418l-.2.342c-.433.76-.862,1.522-1.277,2.292l-.061.113q-.3.546-.581,1.094c-.295.564-.581,1.133-.856,1.708q.579-.841,1.12-1.705c.2-.312.393-.627.587-.942q.082-.133.162-.266c.223-.36.44-.724.658-1.088.081-.137.162-.275.243-.414.148-.251.295-.5.441-.753l.106-.182q.659-1.148,1.294-2.306c.081-.147.159-.293.239-.441.5-.924.986-1.853,1.437-2.8-.583.85-1.133,1.718-1.673,2.593m0,0-.034.054c-.466.756-.919,1.52-1.366,2.286-.082.139-.164.279-.245.418l-.2.342c-.433.76-.862,1.522-1.277,2.292l-.061.113q-.3.546-.581,1.094c-.295.564-.581,1.133-.856,1.708q.579-.841,1.12-1.705c.2-.312.393-.627.587-.942q.082-.133.162-.266c.223-.36.44-.724.658-1.088.081-.137.162-.275.243-.414.148-.251.295-.5.441-.753l.106-.182q.659-1.148,1.294-2.306c.081-.147.159-.293.239-.441.5-.924.986-1.853,1.437-2.8-.583.85-1.133,1.718-1.673,2.593m0,0-.034.054c-.466.756-.919,1.52-1.366,2.286-.082.139-.164.279-.245.418l-.2.342c-.433.76-.862,1.522-1.277,2.292l-.061.113q-.3.546-.581,1.094c-.295.564-.581,1.133-.856,1.708q.579-.841,1.12-1.705c.2-.312.393-.627.587-.942q.082-.133.162-.266c.223-.36.44-.724.658-1.088.081-.137.162-.275.243-.414.148-.251.295-.5.441-.753l.106-.182q.659-1.148,1.294-2.306c.081-.147.159-.293.239-.441.5-.924.986-1.853,1.437-2.8-.583.85-1.133,1.718-1.673,2.593m0,0-.034.054c-.466.756-.919,1.52-1.366,2.286-.082.139-.164.279-.245.418l-.2.342c-.433.76-.862,1.522-1.277,2.292l-.061.113q-.3.546-.581,1.094c-.295.564-.581,1.133-.856,1.708q.579-.841,1.12-1.705c.2-.312.393-.627.587-.942q.082-.133.162-.266c.223-.36.44-.724.658-1.088.081-.137.162-.275.243-.414.148-.251.295-.5.441-.753l.106-.182q.659-1.148,1.294-2.306c.081-.147.159-.293.239-.441.5-.924.986-1.853,1.437-2.8-.583.85-1.133,1.718-1.673,2.593m0,0-.034.054c-.466.756-.919,1.52-1.366,2.286-.082.139-.164.279-.245.418l-.2.342c-.433.76-.862,1.522-1.277,2.292l-.061.113q-.3.546-.581,1.094c-.295.564-.581,1.133-.856,1.708q.579-.841,1.12-1.705c.2-.312.393-.627.587-.942q.082-.133.162-.266c.223-.36.44-.724.658-1.088.081-.137.162-.275.243-.414.148-.251.295-.5.441-.753l.106-.182q.659-1.148,1.294-2.306c.081-.147.159-.293.239-.441.5-.924.986-1.853,1.437-2.8-.583.85-1.133,1.718-1.673,2.593m0,0-.034.054c-.466.756-.919,1.52-1.366,2.286-.082.139-.164.279-.245.418l-.2.342c-.433.76-.862,1.522-1.277,2.292l-.061.113q-.3.546-.581,1.094c-.295.564-.581,1.133-.856,1.708q.579-.841,1.12-1.705c.2-.312.393-.627.587-.942q.082-.133.162-.266c.223-.36.44-.724.658-1.088.081-.137.162-.275.243-.414.148-.251.295-.5.441-.753l.106-.182q.659-1.148,1.294-2.306c.081-.147.159-.293.239-.441.5-.924.986-1.853,1.437-2.8-.583.85-1.133,1.718-1.673,2.593" transform="translate(-22.278 -28.676)"/>
                                <path id="Path_1641" data-name="Path 1641" d="M63.079,45.68l-2.989-1.67a.707.707,0,0,0-.184-.067.746.746,0,0,0-.153-.121l-2.989-1.668a.7.7,0,0,0-.953.269L52.58,48.211l-2.653,4.752-1.4,2.506-.44.79-1.856,3.324-.616,1.1-.681,1.22-.668,1.2-1.837,3.291-1.894,3.391-.228.408a.7.7,0,0,0,.271.953l2.989,1.668a.673.673,0,0,0,.186.071A.662.662,0,0,0,43.9,73l2.988,1.67a.7.7,0,0,0,.953-.271l1.642-2.942,2.791-5,.057-.1,6.979-12.5,4.037-7.231a.7.7,0,0,0-.27-.953M43.78,71.789l-2.452-1.369.245-.438,2-3.577,1.836-3.288.673-1.2,2-3.58.441-.789,1.4-2.508,3.5-6.264,3.124-5.6,2.454,1.369-.859,1.539-1.512-.845a.4.4,0,0,0-.545.155l-2.1,3.758-1.714,3.071a.4.4,0,0,0,.155.543l1.512.845-3.879,6.948-.767,1.372-.806,1.444-1.7,3.052-2.29,4.1ZM54.227,52.36l1.236-2.214.659-1.18a.2.2,0,0,1,.273-.077.2.2,0,0,1,.093.14l-.733,1.313-1.287,2.3a.173.173,0,0,1-.068.014.2.2,0,0,1-.1-.025.2.2,0,0,1-.077-.273m-.591-.366a.2.2,0,0,1-.176.1.191.191,0,0,1-.1-.026.2.2,0,0,1-.077-.271l1.213-2.17a.2.2,0,0,1,.373.121.187.187,0,0,1-.023.073Zm1.9-3.407a.2.2,0,0,1-.273.077.2.2,0,0,1-.076-.273L56.5,46.042a.2.2,0,0,1,.271-.077.2.2,0,0,1,.078.273Zm5.472.168-1.9,3.394a.2.2,0,0,1-.176.1.208.208,0,0,1-.1-.025.2.2,0,0,1-.078-.274l1.9-3.394a.2.2,0,0,1,.274-.077.2.2,0,0,1,.076.273M58.018,51.86,56.879,53.9a.2.2,0,0,1-.176.1.2.2,0,0,1-.1-.025.2.2,0,0,1-.077-.272l1.155-2.068,2.059-3.687a.2.2,0,0,1,.349.194Zm3.411-3.84-1.566-.875a.4.4,0,0,0-.543.156l-2.207,3.952-1.605,2.876a.4.4,0,0,0,.153.543l1.566.875-5.692,10.2-.4.713L48.45,71.267l-1.332,2.387-2.452-1.369.872-1.562,2.394-4.289L49.29,64l1.153-2.067.767-1.372L56.6,50.908l3.277-5.871,2.454,1.369Z" transform="translate(-18.117 -18.949)"/>
                                <path id="Path_1642" data-name="Path 1642" d="M54.07,66.251c.54-.874,1.09-1.743,1.673-2.593-.451.951-.939,1.88-1.437,2.8-.08.147-.158.293-.239.441q-.633,1.16-1.294,2.306l-.106.182c-.146.252-.293.5-.441.753-.081.139-.162.276-.243.414-.218.363-.435.727-.658,1.088q-.08.134-.162.266c-.194.315-.389.63-.587.942q-.543.863-1.12,1.705c.274-.575.561-1.144.856-1.708q.285-.55.581-1.094l.061-.113c.414-.77.844-1.532,1.277-2.292l.2-.342c.081-.139.162-.279.245-.418.446-.766.9-1.53,1.366-2.286l.034-.054" transform="translate(-22.278 -28.676)" fill="#fff"/>
                                <path id="Path_1643" data-name="Path 1643" d="M55.743,63.658c-.451.951-.939,1.88-1.437,2.8-.08.147-.158.293-.24.441q-.632,1.16-1.294,2.306c-.035.06-.071.122-.106.182-.146.252-.292.5-.44.753l-.243.414c-.217.363-.434.727-.657,1.088-.054.089-.107.178-.162.266-.194.315-.39.63-.588.942q-.542.863-1.12,1.705c.274-.575.562-1.144.856-1.708q.284-.55.581-1.094c.02-.037.04-.076.06-.113.415-.77.844-1.532,1.277-2.292l.2-.342c.081-.139.163-.279.245-.418.446-.766.9-1.53,1.366-2.286l.034-.054c.54-.874,1.09-1.743,1.673-2.593" transform="translate(-22.278 -28.676)"/>
                                <path id="Path_1644" data-name="Path 1644" d="M57.047,75.736q-.368.687-.742,1.372-.578,1.058-1.165,2.111l-.356.634q-.494.878-1,1.755-.466.819-.942,1.633-.83,1.428-1.694,2.836c-.23.378-.465.754-.7,1.13q.285-.578.576-1.154.755-1.491,1.545-2.965.4-.744.8-1.482.546-1,1.1-2l.324-.584q.538-.959,1.084-1.918.391-.687.786-1.372Z" transform="translate(-22.726 -34.115)"/>
                                <path id="Path_1645" data-name="Path 1645" d="M74.5,58.542l-4.889-.025L56.771,81.649a3.89,3.89,0,0,1,1.752.967L70.786,60.524l3.7.019a1,1,0,1,0,.01-2m-9.538,11.6c-2.013,3.6-4.053,7.178-6.166,10.718,1.884-3.668,3.841-7.295,5.826-10.907q2.339-4.256,4.744-8.476l.352,0q-2.342,4.351-4.756,8.662m5.8-10.95c-.057-.091-.114-.183-.174-.274.472,0,1.49,0,2.073,0,.775,0,2,.018,2,.018s-2.859.189-3.895.256" transform="translate(-25.573 -26.36)"/>
                                <path id="Path_1646" data-name="Path 1646" d="M35.229,96.127a1,1,0,0,1,1.361-.389l6.667,3.7a3.939,3.939,0,0,0-.571.759l-6.378-3.055,6.058,3.768c-.03.091-.056.185-.079.279l-6.668-3.7a1,1,0,0,1-.389-1.361" transform="translate(-15.812 -43.069)"/>
                                <path id="Path_1647" data-name="Path 1647" d="M52.684,102.2a2.907,2.907,0,1,0,2.892,2.922,2.911,2.911,0,0,0-2.892-2.922m-.02,3.813a.906.906,0,1,1,.911-.9.907.907,0,0,1-.911.9m.659-2.878a2.218,2.218,0,0,0-2.627,1.319,2.489,2.489,0,0,0-.051,1.669,2.108,2.108,0,0,1-.3-1.786,2.313,2.313,0,0,1,.442-.856,2.35,2.35,0,0,1,1.7-.855,2.328,2.328,0,0,1,.951.158,2.1,2.1,0,0,1,1.252,1.308,2.5,2.5,0,0,0-1.369-.957" transform="translate(-22.416 -46.039)"/>
                                <path id="Path_1648" data-name="Path 1648" d="M68.228,97.149l9.034.047a.6.6,0,0,0,.006-1.2l-9.034-.047a.6.6,0,1,0-.006,1.2" transform="translate(-30.465 -43.221)"/>
                                <path id="Path_1649" data-name="Path 1649" d="M72.867,89.317l10.51.054a.6.6,0,1,0,.006-1.2l-10.51-.054a.6.6,0,1,0-.006,1.2" transform="translate(-32.555 -39.693)"/>
                                <path id="Path_1650" data-name="Path 1650" d="M77.014,81.483l5.652.029a.6.6,0,0,0,.006-1.2l-5.652-.029a.6.6,0,0,0-.006,1.2" transform="translate(-34.423 -36.164)"/>
                            </g>
                        </g>
                    </svg>