<?xml version="1.0" encoding="UTF-8" standalone="no" ?>
<!DOCTYPE svg PUBLIC "-//W3C//DTD SVG 1.1//EN" "http://www.w3.org/Graphics/SVG/1.1/DTD/svg11.dtd">
<svg xmlns="http://www.w3.org/2000/svg" xmlns:xlink="http://www.w3.org/1999/xlink" version="1.1" width="1080" height="1080" viewBox="0 0 1080 1080" xml:space="preserve">
<desc>Created with Fabric.js 5.2.4</desc>
<defs>
</defs>
<g transform="matrix(1 0 0 1 540 540)" id="8f447009-0709-4709-b902-5a6f4fc7c441"  >
<rect style="stroke: none; stroke-width: 1; stroke-dasharray: none; stroke-linecap: butt; stroke-dashoffset: 0; stroke-linejoin: miter; stroke-miterlimit: 4; fill: rgb(255,255,255); fill-rule: nonzero; opacity: 1; visibility: hidden;" vector-effect="non-scaling-stroke"  x="-540" y="-540" rx="0" ry="0" width="1080" height="1080" />
</g>
<g transform="matrix(1 0 0 1 540 540)" id="8a1e4005-2751-41c6-838e-555c0c3cac59"  >
</g>
<g transform="matrix(11.24 0 0 11.24 540 540)"  >
<g style=""   >
		<g transform="matrix(1 0 0 1 8.69 -2.2)" id="Path_9989" clip-path="url(#CLIPPATH_3)"  >
<clipPath id="CLIPPATH_3" >
	<rect transform="matrix(1 0 0 1 -8.69 2.2)" id="Rectangle_1977" x="-48.033" y="-25.3975" rx="0" ry="0" width="96.066" height="50.795" />
</clipPath>
<path style="stroke: none; stroke-width: 1; stroke-dasharray: none; stroke-linecap: butt; stroke-dashoffset: 0; stroke-linejoin: miter; stroke-miterlimit: 4; fill: rgb(0,0,0); fill-rule: nonzero; opacity: 1;" vector-effect="non-scaling-stroke"  transform=" translate(-64.73, -26.45)" d="M 100.17 27.338 L 97 14.072 C 96.63528265070138 12.764001647698109 95.46785805516 11.841053300098062 94.111 11.788 L 82.319 11.788 L 78.71900000000001 30.639 C 78.64484143259065 31.012020444018017 78.31831663558364 31.281267523752355 77.938 31.282999999999998 L 30.438000000000002 31.282999999999998 L 29.06 38.812 C 28.930962915412586 39.38485867667947 29.07596679157161 39.98513901866521 29.452276014993565 40.435926109222756 C 29.82858523841552 40.88671319978031 30.393304698846137 41.13662227141758 30.979999999999997 41.111999999999995 L 38.971 41.111999999999995 C 39.17401496913258 37.04402723650193 42.531464586177286 33.84995504984181 46.6045 33.84995504984181 C 50.67753541382271 33.84995504984181 54.03498503086742 37.04402723650193 54.238 41.111999999999995 L 75.811 41.111999999999995 C 75.801 40.965999999999994 75.79700000000001 40.818999999999996 75.79700000000001 40.67099999999999 C 75.79700000000001 36.449887657043234 79.21888765704325 33.02799999999999 83.44000000000001 33.02799999999999 C 87.66111234295677 33.02799999999999 91.08300000000001 36.449887657043234 91.08300000000001 40.67099999999999 C 91.08300000000001 40.818999999999996 91.07700000000001 40.965999999999994 91.06900000000002 41.111999999999995 L 96.26900000000002 41.111999999999995 C 97.60816384463526 41.068330967359415 98.74669369568402 40.12092913761551 99.03300000000002 38.812 L 100.30300000000001 31.918 C 100.52781312873056 30.395888650801535 100.4844929101125 28.84617551758197 100.17500000000001 27.338999999999995 M 93.32300000000001 24.067999999999998 L 92.92800000000001 26.214 L 85.733 26.214 C 85.44912167494995 26.213634224530825 85.1800565198099 26.087256399014414 84.99851192923497 25.869016625238174 C 84.81696733866004 25.650776851461934 84.74168211440154 25.363201561318387 84.793 25.084 L 86.14500000000001 17.733 C 86.22803008754697 17.279037636561757 86.62350700375362 16.94919305964046 87.08500000000001 16.949 L 90.438 16.949 C 91.21281644771733 16.94814202433167 91.8868428044091 17.479418784302332 92.06700000000001 18.233 L 93.3 23.374 C 93.35408364413148 23.601240389962843 93.36021398135352 23.837258373011572 93.318 24.067" stroke-linecap="round" />
</g>
		<g transform="matrix(1 0 0 1 -36.06 4.45)" id="Path_9990" clip-path="url(#CLIPPATH_4)"  >
<clipPath id="CLIPPATH_4" >
	<rect transform="matrix(1 0 0 1 36.06 -4.45)" id="Rectangle_1977" x="-48.033" y="-25.3975" rx="0" ry="0" width="96.066" height="50.795" />
</clipPath>
<path style="stroke: none; stroke-width: 1; stroke-dasharray: none; stroke-linecap: butt; stroke-dashoffset: 0; stroke-linejoin: miter; stroke-miterlimit: 4; fill: rgb(0,0,0); fill-rule: nonzero; opacity: 1;" vector-effect="non-scaling-stroke"  transform=" translate(-13.98, -40.92)" d="M 19.912 41.712 L 8.048 41.712 C 7.759599052603864 41.72227222849282 7.488598687837981 41.57427206124782 7.341351041450565 41.32608109491229 C 7.194103395063149 41.07789012857676 7.194103395063149 40.76910987142325 7.341351041450565 40.52091890508772 C 7.48859868783798 40.27272793875219 7.759599052603864 40.12472777150719 8.048 40.135000000000005 L 19.912 40.135000000000005 C 20.200400947396133 40.12472777150719 20.47140131216202 40.27272793875219 20.618648958549432 40.52091890508772 C 20.76589660493685 40.76910987142325 20.76589660493685 41.07789012857676 20.618648958549436 41.32608109491229 C 20.47140131216202 41.57427206124782 20.200400947396137 41.72227222849282 19.912 41.712" stroke-linecap="round" />
</g>
		<g transform="matrix(1 0 0 1 -40.34 -1.22)" id="Path_9991" clip-path="url(#CLIPPATH_5)"  >
<clipPath id="CLIPPATH_5" >
	<rect transform="matrix(1 0 0 1 40.34 1.22)" id="Rectangle_1977" x="-48.033" y="-25.3975" rx="0" ry="0" width="96.066" height="50.795" />
</clipPath>
<path style="stroke: none; stroke-width: 1; stroke-dasharray: none; stroke-linecap: butt; stroke-dashoffset: 0; stroke-linejoin: miter; stroke-miterlimit: 4; fill: rgb(0,0,0); fill-rule: nonzero; opacity: 1;" vector-effect="non-scaling-stroke"  transform=" translate(-7.69, -33.09)" d="M 14.591 33.882 L 0.789 33.882 C 0.36444661234973635 33.86687831109877 0.028084693339996414 33.518322603495314 0.028084693339996414 33.0935 C 0.028084693339996414 32.66867739650468 0.3644466123497359 32.320121688901224 0.7889999999999996 32.305 L 14.589 32.305 C 15.013553387650264 32.320121688901224 15.349915306660003 32.66867739650468 15.349915306660003 33.0935 C 15.349915306660003 33.518322603495314 15.013553387650266 33.86687831109877 14.589 33.882" stroke-linecap="round" />
</g>
		<g transform="matrix(1 0 0 1 -40.12 -6.89)" id="Path_9992" clip-path="url(#CLIPPATH_6)"  >
<clipPath id="CLIPPATH_6" >
	<rect transform="matrix(1 0 0 1 40.12 6.89)" id="Rectangle_1977" x="-48.033" y="-25.3975" rx="0" ry="0" width="96.066" height="50.795" />
</clipPath>
<path style="stroke: none; stroke-width: 1; stroke-dasharray: none; stroke-linecap: butt; stroke-dashoffset: 0; stroke-linejoin: miter; stroke-miterlimit: 4; fill: rgb(0,0,0); fill-rule: nonzero; opacity: 1;" vector-effect="non-scaling-stroke"  transform=" translate(-9.22, -25.26)" d="M 12.93 26.053 L 5.508 26.053 C 5.083446612349715 26.037878311098805 4.7470846933399455 25.689322603495338 4.7470846933399455 25.264499999999998 C 4.7470846933399455 24.839677396504662 5.083446612349715 24.491121688901195 5.508 24.476 L 12.93 24.476 C 13.354553387650263 24.491121688901224 13.690915306660003 24.83967739650468 13.690915306660003 25.264499999999998 C 13.690915306660003 25.689322603495317 13.354553387650265 26.037878311098773 12.93 26.052999999999997" stroke-linecap="round" />
</g>
		<g transform="matrix(1 0 0 1 27.37 12.26)" id="Path_9993" clip-path="url(#CLIPPATH_7)"  >
<clipPath id="CLIPPATH_7" >
	<rect transform="matrix(1 0 0 1 -27.37 -12.26)" id="Rectangle_1977" x="-48.033" y="-25.3975" rx="0" ry="0" width="96.066" height="50.795" />
</clipPath>
<path style="stroke: none; stroke-width: 1; stroke-dasharray: none; stroke-linecap: butt; stroke-dashoffset: 0; stroke-linejoin: miter; stroke-miterlimit: 4; fill: rgb(0,0,0); fill-rule: nonzero; opacity: 1;" vector-effect="non-scaling-stroke"  transform=" translate(-101.68, -49.44)" d="M 107.743 46.892 C 107.22923111381412 45.265818763760315 106.04772022222961 43.935103766093484 104.49378296353021 43.23246383160605 C 102.93984570483082 42.529823897118604 101.16032226654926 42.52165538716333 99.6 43.21 C 96.4827192363802 44.58814013227344 94.74628625069799 47.951542566908635 95.428 51.291 C 95.48116148566811 51.53224961886125 95.54793493538412 51.770296967098844 95.628 52.004 C 96.3793310083522 54.37929165896197 98.52158224118844 56.042213680808636 101.009 56.181 C 102.14260258653132 56.17201104221719 103.26096773692889 55.91893786698237 104.288 55.439 C 107.34133356562337 53.787547409185564 108.79227138089091 50.20090297746001 107.746 46.891 M 101.039 47.504 C 101.52512923947789 47.28975757304597 102.07943793024774 47.29239165364301 102.56350909661573 47.51124448289965 C 103.04758026298373 47.73009731215629 103.41572008472517 48.144510312304384 103.57600000000001 48.650999999999996 C 103.92296345775964 49.74697379559618 103.38835185276835 50.92829298727048 102.33600000000001 51.391 C 101.8503093061058 51.605632542155476 101.29622608994387 51.60341849651951 100.81226616680645 51.3849113545667 C 100.32830624366902 51.16640421261388 99.96021066089885 50.75225598507269 99.8 50.246 C 99.65922514486527 49.81651916881958 99.65503278270516 49.353961877154106 99.788 48.922000000000004 C 99.9747920079141 48.28782998618401 100.432875385763 47.768961763632554 101.039 47.505 M 105.345 46.329 C 104.57754909036683 45.4285734878023 103.48585284864666 44.86727344515355 102.307 44.767 C 101.09564989522511 44.67463247456119 99.89300096091435 45.034073462333566 98.931 45.776 C 97.87542956777155 46.59717498852967 97.11043590529148 47.7346781623319 96.74799999999999 49.022000000000006 C 96.7428126952331 47.5430013306784 97.35586083542186 46.12911147453638 98.439 45.12200000000001 C 98.97833847171977 44.610527644105865 99.61634545541666 44.21445290862682 100.314 43.958000000000006 C 100.99986695384801 43.7156069546281 101.72850224402308 43.617888109637335 102.454 43.67100000000001 C 103.16482158116919 43.73846446470363 103.85242213458594 43.95992985386864 104.469 44.32000000000001 C 105.08071097335741 44.68479756542392 105.60230866035168 45.182810560149115 105.99499999999999 45.77700000000001 C 106.79653411102932 46.98490735370128 107.02791766714665 48.483600213229124 106.62799999999999 49.87700000000001 C 106.62232711424079 48.58223379983674 106.16943994281223 47.329198856734465 105.34599999999999 46.33000000000001" stroke-linecap="round" />
</g>
		<g transform="matrix(1 0 0 1 5.1 21.48)" id="Path_9994" clip-path="url(#CLIPPATH_8)"  >
<clipPath id="CLIPPATH_8" >
	<rect transform="matrix(1 0 0 1 -5.1 -21.48)" id="Rectangle_1977" x="-48.033" y="-25.3975" rx="0" ry="0" width="96.066" height="50.795" />
</clipPath>
<path style="stroke: none; stroke-width: 1; stroke-dasharray: none; stroke-linecap: butt; stroke-dashoffset: 0; stroke-linejoin: miter; stroke-miterlimit: 4; fill: rgb(0,0,0); fill-rule: nonzero; opacity: 1;" vector-effect="non-scaling-stroke"  transform=" translate(-57.03, -64.49)" d="M 14.1 64.489 C 21.253999999999998 64.223 28.409 64.083 35.563 63.989000000000004 C 39.14 63.93000000000001 42.717 63.917 46.295 63.882000000000005 L 57.026 63.84700000000001 L 67.75800000000001 63.88000000000001 C 71.33500000000001 63.91600000000001 74.912 63.92800000000001 78.49000000000001 63.98700000000001 C 85.644 64.08200000000001 92.799 64.22200000000001 99.953 64.48700000000001 C 92.799 64.75500000000001 85.644 64.89500000000001 78.49000000000001 64.98700000000001 C 74.91300000000001 65.04700000000001 71.33600000000001 65.05900000000001 67.75800000000001 65.09500000000001 L 57.02600000000001 65.12800000000001 L 46.3 65.1 C 42.723 65.065 39.146 65.05199999999999 35.568 64.993 C 28.413999999999998 64.898 21.259 64.758 14.104999999999997 64.493" stroke-linecap="round" />
</g>
		<g transform="matrix(1 0 0 1 6.23 24.91)" id="Path_9995" clip-path="url(#CLIPPATH_9)"  >
<clipPath id="CLIPPATH_9" >
	<rect transform="matrix(1 0 0 1 -6.23 -24.91)" id="Rectangle_1977" x="-48.033" y="-25.3975" rx="0" ry="0" width="96.066" height="50.795" />
</clipPath>
<path style="stroke: none; stroke-width: 1; stroke-dasharray: none; stroke-linecap: butt; stroke-dashoffset: 0; stroke-linejoin: miter; stroke-miterlimit: 4; fill: rgb(0,0,0); fill-rule: nonzero; opacity: 1;" vector-effect="non-scaling-stroke"  transform=" translate(-66.12, -69.29)" d="M 42.967 69.295 C 46.824999999999996 69.095 50.684 68.995 54.542 68.919 C 56.472 68.875 58.401 68.865 60.33 68.839 L 66.118 68.812 L 71.90599999999999 68.837 C 73.835 68.864 75.764 68.872 77.693 68.917 C 81.55199999999999 68.988 85.41 69.093 89.269 69.294 C 85.41000000000001 69.494 81.552 69.6 77.69300000000001 69.67099999999999 C 75.76400000000001 69.716 73.83500000000001 69.725 71.906 69.75099999999999 L 66.11800000000001 69.776 L 60.33000000000001 69.749 C 58.40100000000001 69.723 56.472000000000016 69.713 54.542000000000016 69.669 C 50.68400000000002 69.598 46.82500000000002 69.493 42.96700000000001 69.29299999999999" stroke-linecap="round" />
</g>
		<g transform="matrix(1 0 0 1 -9.71 12.92)" id="Path_9996" clip-path="url(#CLIPPATH_10)"  >
<clipPath id="CLIPPATH_10" >
	<rect transform="matrix(1 0 0 1 9.71 -12.92)" id="Rectangle_1977" x="-48.033" y="-25.3975" rx="0" ry="0" width="96.066" height="50.795" />
</clipPath>
<path style="stroke: none; stroke-width: 1; stroke-dasharray: none; stroke-linecap: butt; stroke-dashoffset: 0; stroke-linejoin: miter; stroke-miterlimit: 4; fill: rgb(0,0,0); fill-rule: nonzero; opacity: 1;" vector-effect="non-scaling-stroke"  transform=" translate(-50.48, -50.34)" d="M 56.537 47.793 C 56.02300196240634 46.168387518533244 54.84247255237043 44.838950397828434 53.29002965240877 44.13646855468491 C 51.73758675244711 43.43398671154139 49.959675899365614 43.42472688634497 48.4 44.111 C 45.28271923638022 45.489140132273434 43.54628625069799 48.85254256690863 44.228 52.19199999999999 C 44.28115941106981 52.43325013796023 44.34793289346607 52.67129760270291 44.428000000000004 52.904999999999994 C 45.17782293607293 55.27774270159506 47.31568561398655 56.94043634796943 49.8 57.083 C 50.93360258653133 57.074011042217194 52.05196773692889 56.82093786698237 53.07899999999999 56.341 C 56.13233356562337 54.689547409185565 57.58327138089091 51.10290297746001 56.53699999999999 47.793 M 49.82999999999999 48.406 C 50.31612923947789 48.19175757304597 50.87043793024772 48.19439165364302 51.354509096615715 48.41324448289966 C 51.83858026298371 48.63209731215629 52.20672008472514 49.04651031230439 52.36699999999999 49.553 C 52.71396345775962 50.648973795596184 52.17935185276833 51.83029298727048 51.12699999999999 52.293 C 50.64117613131621 52.50759711303291 50.08697236082077 52.50524683923235 49.60298606554125 52.28653694396802 C 49.11899977026173 52.06782704870369 48.7509936250876 51.65343735272613 48.59099999999999 51.147 C 48.44989630935347 50.71757327768055 48.44570302046927 50.254913737457 48.578999999999986 49.823 C 48.765792007914094 49.18882998618401 49.22387538576298 48.66996176363255 49.829999999999984 48.406 M 54.13599999999998 47.23 C 53.36902951254196 46.330039055259 52.27814085152665 45.76878474415692 51.1 45.668 C 49.8886498952251 45.57563247456119 48.686000960914356 45.93507346233356 47.724000000000004 46.677 C 46.66822153173372 47.4979808331744 45.90317762813921 48.63555871272905 45.541000000000004 49.923 C 45.53581269523312 48.4440013306784 46.14886083542188 47.030111474536376 47.232000000000006 46.023 C 47.76910188487833 45.51161281270368 48.40466846442968 45.11489405908651 49.1 44.857 C 49.78586695384802 44.614606954628094 50.514502244023085 44.51688810963733 51.24 44.57 C 51.950821581169194 44.637464464703626 52.638422134585944 44.85892985386863 53.255 45.219 C 53.86671097335743 45.583797565423914 54.3883086603517 46.08181056014911 54.781000000000006 46.676 C 55.582534111029325 47.883907353701275 55.813917667146676 49.382600213229125 55.41400000000001 50.776 C 55.40832711424082 49.48123379983674 54.95543994281225 48.22819885673446 54.132000000000005 47.229000000000006" stroke-linecap="round" />
</g>
		<g transform="matrix(1 0 0 1 -0.79 -9.06)" id="Path_9997" clip-path="url(#CLIPPATH_11)"  >
<clipPath id="CLIPPATH_11" >
	<rect transform="matrix(1 0 0 1 0.79 9.06)" id="Rectangle_1977" x="-48.033" y="-25.3975" rx="0" ry="0" width="96.066" height="50.795" />
</clipPath>
<path style="stroke: none; stroke-width: 1; stroke-dasharray: none; stroke-linecap: butt; stroke-dashoffset: 0; stroke-linejoin: miter; stroke-miterlimit: 4; fill: rgb(0,0,0); fill-rule: nonzero; opacity: 1;" vector-effect="non-scaling-stroke"  transform=" translate(-55.3, -18.6)" d="M 29.231 28.368 C 32.048 28.153 34.865 27.982999999999997 37.682 27.825999999999997 C 38.382000000000005 27.791999999999998 39.09 27.725999999999996 39.794000000000004 27.747999999999998 C 40.498000000000005 27.77 41.202000000000005 27.759999999999998 41.907000000000004 27.761 L 76.607 27.761 L 76.619 27.761 C 76.64727637664215 27.752035525627576 76.67140232007507 27.733231481481326 76.687 27.708 C 76.70051016167575 27.689223713098052 76.71066065107466 27.66824603500698 76.717 27.645999999999997 C 76.71741270130448 27.640007096765277 76.71741270130448 27.633992903234716 76.717 27.627999999999997 L 76.717 27.618999999999996 L 76.723 27.585999999999995 L 76.745 27.455999999999996 L 77.10900000000001 25.374999999999996 L 78.56500000000001 17.050999999999995 L 79.29200000000002 12.888999999999996 L 79.65600000000002 10.807999999999996 C 79.77800000000002 10.113999999999997 79.90000000000002 9.420999999999996 80.00600000000001 8.724999999999996 L 80.61700000000002 9.451999999999996 C 80.18700000000001 9.457999999999997 79.75700000000002 9.419999999999996 79.32700000000001 9.397999999999996 L 78.037 9.324999999999996 L 75.456 9.175999999999997 L 72.885 9.01 L 70.3 8.829 L 72.881 8.648000000000001 L 75.462 8.485000000000001 L 78.043 8.336000000000002 L 79.33300000000001 8.263000000000002 C 79.76300000000002 8.241000000000001 80.19300000000001 8.204000000000002 80.62300000000002 8.209000000000001 L 81.37500000000001 8.219000000000001 L 81.23300000000002 8.936000000000002 C 81.09700000000002 9.627000000000002 80.97700000000002 10.321000000000002 80.85600000000002 11.015000000000002 L 80.5 13.1 L 79.772 17.262 L 78.31700000000001 25.586 L 77.953 27.666999999999998 L 77.931 27.796999999999997 L 77.925 27.83 L 77.913 27.884999999999998 C 77.905 27.921999999999997 77.896 27.958 77.88499999999999 27.994 C 77.84101522511484 28.141230924134856 77.77347402388018 28.28036579867827 77.68499999999999 28.406 C 77.49928827331492 28.674232789105236 77.22184578937494 28.865241268433135 76.90499999999999 28.942999999999998 C 76.82367796745443 28.962596255365902 76.74059548787982 28.973986595307583 76.65699999999998 28.976999999999997 L 41.907 28.976999999999997 C 41.206999999999994 28.976999999999997 40.498999999999995 28.971999999999998 39.794 28.99 C 39.089 29.008 38.385999999999996 28.945999999999998 37.681999999999995 28.912 C 34.864999999999995 28.755 32.047999999999995 28.584999999999997 29.230999999999995 28.369999999999997" stroke-linecap="round" />
</g>
		<g transform="matrix(1 0 0 1 -20.54 -5.69)" id="Path_9998" clip-path="url(#CLIPPATH_12)"  >
<clipPath id="CLIPPATH_12" >
	<rect transform="matrix(1 0 0 1 20.54 5.69)" id="Rectangle_1977" x="-48.033" y="-25.3975" rx="0" ry="0" width="96.066" height="50.795" />
</clipPath>
<path style="stroke: none; stroke-width: 1; stroke-dasharray: none; stroke-linecap: butt; stroke-dashoffset: 0; stroke-linejoin: miter; stroke-miterlimit: 4; fill: rgb(0,0,0); fill-rule: nonzero; opacity: 1;" vector-effect="non-scaling-stroke"  transform=" translate(-37.46, -26.48)" d="M 36.14 28.432 C 36.813 27.947 36.703 26.363999999999997 37.105000000000004 25.514 C 37.507000000000005 24.664 38.12200000000001 25.258 38.789 24.52 L 36.212 24.587 Z" stroke-linecap="round" />
</g>
		<g transform="matrix(1 0 0 1 -2.83 -13.61)" id="Path_9999" clip-path="url(#CLIPPATH_13)"  >
<clipPath id="CLIPPATH_13" >
	<rect transform="matrix(1 0 0 1 2.83 13.61)" id="Rectangle_1977" x="-48.033" y="-25.3975" rx="0" ry="0" width="96.066" height="50.795" />
</clipPath>
<path style="stroke: none; stroke-width: 1; stroke-dasharray: none; stroke-linecap: butt; stroke-dashoffset: 0; stroke-linejoin: miter; stroke-miterlimit: 4; fill: rgb(0,0,0); fill-rule: nonzero; opacity: 1;" vector-effect="non-scaling-stroke"  transform=" translate(-53.89, -11.79)" d="M 75.917 13.942 L 75.399 13.565 L 73.407 12.115 L 70.384 9.915 L 66.83 7.325 L 63.242 4.711 L 60.119 2.437 L 57.961 0.865 C 57.772999999999996 0.728 57.099 0.244 56.955 0.16500000000000004 C 56.46810374012918 -0.028029229551265133 55.9307071492046 -0.05301623541612835 55.428 0.09399999999999942 L 52.657 0.43400000000000005 L 48.617999999999995 0.934 L 44.1 1.484 L 39.9 2 L 36.8 2.3810000000000002 L 35.589 2.5300000000000002 C 35.17395791028192 2.5800470642145132 34.86343816488945 2.934988384295073 34.869 3.3530000000000006 L 34.925 8.7 C 34.92732892434688 8.791276385707805 34.94490462068028 8.88152082649664 34.977 8.966999999999999 L 32.263999999999996 9.149 C 31.82963392758827 9.178168562267835 31.493774475756947 9.541687027779382 31.498999999999995 9.976999999999999 L 31.566999999999997 15.784999999999998 C 31.56937387724497 16.00221646971623 31.65794618675145 16.209591779457224 31.813229182490996 16.361499057898087 C 31.968512178230544 16.513406336338946 32.17778381853308 16.59740010793286 32.394999999999996 16.595 L 32.413999999999994 16.595 L 33.596999999999994 16.555 C 33.40125806617861 16.711275272702313 33.287788583058834 16.94852964649821 33.288999999999994 17.198999999999998 L 33.35399999999999 22.769999999999996 C 33.36003816226063 23.222258307634878 33.73072325388828 23.584447601022568 34.18299999999999 23.579999999999995 L 75.093 23.1 C 75.54549279481164 23.094509013181185 75.90800006524427 22.723498485787783 75.903 22.271 L 75.878 20.149 C 75.87521480562653 19.758309838003758 75.59749173719236 19.42370373145657 75.214 19.349 L 75.194 17.685 C 75.28227568802991 17.718131933120066 75.37571341980531 17.735397600948126 75.47 17.735999999999997 C 75.92241821050428 17.729416553108866 76.28445146068009 17.358444210336124 76.28 16.906 L 76.253 14.59 C 76.24947072618941 14.33148291854844 76.1246658287999 14.08965028354742 75.916 13.937 M 57.131 1.709 L 75.085 14.785 L 75.103 16.343 L 57.194 7.161 Z M 74.019 17.263 L 74.04100000000001 19.138 L 73.269 19 L 53.844 14.826 L 53.778 9.2 Z M 36.132 3.446 L 56.076 1.235 L 56.076 7 L 36.132 8.105 Z M 32.692 10.046 L 52.637 8.939 L 52.637 14.72 L 32.693 15.162 Z M 34.4 17.3 L 54.343999999999994 16.858 L 54.343999999999994 22.178 L 34.4 22.178 Z M 74.731 21.935000000000002 L 55.63799999999999 22.157000000000004 L 55.57699999999999 16.950000000000003 L 74.714 20.450000000000003 Z" stroke-linecap="round" />
</g>
		<g transform="matrix(1 0 0 1 -11.13 -20.42)" id="Path_10000" clip-path="url(#CLIPPATH_14)"  >
<clipPath id="CLIPPATH_14" >
	<rect transform="matrix(1 0 0 1 11.13 20.42)" id="Rectangle_1977" x="-48.033" y="-25.3975" rx="0" ry="0" width="96.066" height="50.795" />
</clipPath>
<path style="stroke: none; stroke-width: 1; stroke-dasharray: none; stroke-linecap: butt; stroke-dashoffset: 0; stroke-linejoin: miter; stroke-miterlimit: 4; fill: rgb(0,0,0); fill-rule: nonzero; opacity: 1;" vector-effect="non-scaling-stroke"  transform=" translate(-48.94, -6.04)" d="M 53.919 3.879 L 43.859 4.913 C 43.73942861316337 4.925275077609541 43.64839455494804 5.025800838577179 43.648 5.146 L 43.648 7.976 C 43.647827900916916 8.041121578436446 43.674801046910055 8.103369263935608 43.72243392135171 8.147776007438981 C 43.77006679579336 8.192182750942354 43.83405029324089 8.214731298770353 43.899 8.21 L 54.017 7.510000000000001 C 54.14174388083042 7.501987295250765 54.237939500103245 7.396966389806114 54.23500000000001 7.272 L 54.178000000000004 4.106 C 54.17669461543202 4.040403307395504 54.14791034886837 3.9783678174685235 54.09866381991704 3.9350156607082787 C 54.04941729096571 3.8916635039480343 53.98423276507945 3.870977431409461 53.919000000000004 3.8779999999999997 M 45.794 6.953 L 44.546 7.053 L 44.525999999999996 7.053 C 44.40142806155744 7.051685401988662 44.29972700471127 6.953001397022983 44.29466267491276 6.8285255014489445 C 44.28959834511424 6.704049605874906 44.38294657744604 6.597429976724258 44.507 6.586 L 45.754999999999995 6.486000000000001 C 45.88395848908549 6.475506589753216 45.99700658975321 6.571541510914512 46.00749999999999 6.700500000000002 C 46.01799341024678 6.829458489085492 45.92195848908548 6.942506589753216 45.79299999999999 6.953 M 46.879999999999995 5.789000000000001 L 44.544999999999995 5.979000000000001 L 44.52499999999999 5.979000000000001 C 44.395765368539585 5.984246705123393 44.286746705123385 5.883734631460406 44.281499999999994 5.7545 C 44.276253294876604 5.625265368539594 44.37676536853959 5.516246705123393 44.50599999999999 5.511000000000001 L 46.840999999999994 5.321000000000001 C 46.926382486612106 5.310238495536645 47.0107816516065 5.347211561803364 47.06075878403493 5.417270574304348 C 47.11073591646336 5.487329586805332 47.118224818690976 5.579167177280798 47.08025840879314 5.656397551602378 C 47.0422919988953 5.733627925923959 46.96499797069599 5.783786274039091 46.87899999999999 5.787000000000001 M 53.22299999999999 6.563000000000001 C 53.222839929452824 6.685135114032781 53.12877334409427 6.786605088053811 53.00699999999999 6.796 L 48.25199999999999 7.175000000000001 C 48.18740268345952 7.179986955420315 48.12362894558612 7.157968160646143 48.07586907626652 7.114188280436513 C 48.02810920694693 7.070408400226881 48.000638422828175 7.008786383174915 48 6.944 L 48 5.887 C 48.000120074262746 5.764669040893467 48.0940694652247 5.662890534018016 48.216 5.653 L 52.971000000000004 5.273999999999999 C 53.03610780633055 5.268695924289556 53.10046887916115 5.2908484884728155 53.148519750408255 5.335100871874301 C 53.19657062165536 5.379353255275787 53.223936533505025 5.441676530738774 53.224000000000004 5.506999999999999 Z" stroke-linecap="round" />
</g>
		<g transform="matrix(1 0 0 1 -18.64 -19.78)" id="Path_10001" clip-path="url(#CLIPPATH_15)"  >
<clipPath id="CLIPPATH_15" >
	<rect transform="matrix(1 0 0 1 18.64 19.77)" id="Rectangle_1977" x="-48.033" y="-25.3975" rx="0" ry="0" width="96.066" height="50.795" />
</clipPath>
<path style="stroke: none; stroke-width: 1; stroke-dasharray: none; stroke-linecap: butt; stroke-dashoffset: 0; stroke-linejoin: miter; stroke-miterlimit: 4; fill: rgb(0,0,0); fill-rule: nonzero; opacity: 1;" vector-effect="non-scaling-stroke"  transform=" translate(-40.05, -6.97)" d="M 38.62 9.051 C 39.293 8.566 39.089 6.882 39.492 6.033 C 39.894999999999996 5.184000000000001 40.992 5.742 41.482 4.892 L 38.618 5.187 Z" stroke-linecap="round" />
</g>
		<g transform="matrix(1 0 0 1 -3.06 -21.03)" id="Path_10002" clip-path="url(#CLIPPATH_16)"  >
<clipPath id="CLIPPATH_16" >
	<rect transform="matrix(1 0 0 1 3.06 21.03)" id="Rectangle_1977" x="-48.033" y="-25.3975" rx="0" ry="0" width="96.066" height="50.795" />
</clipPath>
<path style="stroke: none; stroke-width: 1; stroke-dasharray: none; stroke-linecap: butt; stroke-dashoffset: 0; stroke-linejoin: miter; stroke-miterlimit: 4; fill: rgb(0,0,0); fill-rule: nonzero; opacity: 1;" vector-effect="non-scaling-stroke"  transform=" translate(-61.4, -5.11)" d="M 62.44 6.262 C 62.108 6.726999999999999 59.571999999999996 6.762 59.54 7.526 L 63.251 7.2 L 63.135 2.7 C 62.471 2.733 62.771 5.793 62.434999999999995 6.258" stroke-linecap="round" />
</g>
		<g transform="matrix(1 0 0 1 -14.76 -13.17)" id="Path_10003" clip-path="url(#CLIPPATH_17)"  >
<clipPath id="CLIPPATH_17" >
	<rect transform="matrix(1 0 0 1 14.76 13.17)" id="Rectangle_1977" x="-48.033" y="-25.3975" rx="0" ry="0" width="96.066" height="50.795" />
</clipPath>
<path style="stroke: none; stroke-width: 1; stroke-dasharray: none; stroke-linecap: butt; stroke-dashoffset: 0; stroke-linejoin: miter; stroke-miterlimit: 4; fill: rgb(0,0,0); fill-rule: nonzero; opacity: 1;" vector-effect="non-scaling-stroke"  transform=" translate(-43.89, -16.19)" d="M 49.055 14.366 L 38.706 14.817 C 38.58068651333255 14.822360121610245 38.481885416266806 14.925571981937857 38.482000000000006 15.051 L 38.482000000000006 17.772 C 38.48170019838772 17.835200918753255 38.507087671065555 17.895812218906393 38.552340046842914 17.939933285289325 C 38.59759242262028 17.984054351672253 38.65882692015932 18.007899472480563 38.72200000000001 18.006 L 49.07100000000001 17.706 C 49.197492969940086 17.70221434071287 49.2980566355927 17.598549592859506 49.29800000000001 17.471999999999998 L 49.29800000000001 14.6 C 49.297785898968776 14.536075920343158 49.27153984768458 14.474997513282743 49.22531260368282 14.430845778195348 C 49.17908535968106 14.386694043107951 49.1168665203456 14.36327945259694 49.05300000000001 14.366 M 40.90400000000001 17.047 L 39.5 17.1 L 39.491 17.1 C 39.36148922616468 17.10248528137424 39.25448528137424 16.999510773835322 39.251999999999995 16.87 C 39.24951471862576 16.74048922616468 39.35248922616468 16.633485281374238 39.482 16.631 L 40.891999999999996 16.577 C 41.02151077383532 16.572029437251523 41.13052943725152 16.67298922616468 41.13549999999999 16.802500000000002 C 41.140470562748476 16.932010773835323 41.03951077383532 17.041029437251524 40.91 17.046000000000003 M 41.81699999999999 15.887000000000002 L 39.437999999999995 15.981000000000002 L 39.428999999999995 15.981000000000002 C 39.29976536853959 15.983485281374241 39.192985281374234 15.880734631460408 39.19049999999999 15.751500000000002 C 39.18801471862576 15.622265368539596 39.29076536853959 15.515485281374241 39.419999999999995 15.513000000000002 L 41.79899999999999 15.418000000000001 C 41.92851077383531 15.412753294876609 42.0377532948766 15.51348922616468 42.04299999999999 15.643 C 42.04824670512338 15.772510773835322 41.94751077383531 15.881753294876608 41.81799999999999 15.887 M 48.34299999999999 16.787 C 48.34311458373319 16.912428018062144 48.244313486667444 17.015639878389756 48.11899999999999 17.021 L 43.36399999999999 17.221 C 43.30012984710243 17.223447904038018 43.238018057898856 17.199773971355604 43.191980809943566 17.15543481861178 C 43.145943561988275 17.111095665867957 43.11995310771133 17.049917027985117 43.11999999999999 16.986 L 43.11999999999999 15.931 C 43.11988541626679 15.805571981937856 43.218686513332536 15.702360121610244 43.34399999999999 15.697 L 48.09899999999999 15.497 C 48.16277447808878 15.494272076170942 48.22489527463244 15.517715967937484 48.27096607594945 15.561898621659536 C 48.31703687726646 15.606081275381587 48.34305831617805 15.667167232371316 48.34299999999999 15.731 Z" stroke-linecap="round" />
</g>
		<g transform="matrix(1 0 0 1 -6.53 -13.47)" id="Path_10004" clip-path="url(#CLIPPATH_18)"  >
<clipPath id="CLIPPATH_18" >
	<rect transform="matrix(1 0 0 1 6.53 13.47)" id="Rectangle_1977" x="-48.033" y="-25.3975" rx="0" ry="0" width="96.066" height="50.795" />
</clipPath>
<path style="stroke: none; stroke-width: 1; stroke-dasharray: none; stroke-linecap: butt; stroke-dashoffset: 0; stroke-linejoin: miter; stroke-miterlimit: 4; fill: rgb(0,0,0); fill-rule: nonzero; opacity: 1;" vector-effect="non-scaling-stroke"  transform=" translate(-56.59, -15.6)" d="M 57.621 16.87 C 57.289 17.335 54.696000000000005 17.118000000000002 54.662 17.881 L 58.432 17.806 L 58.511 13.312000000000001 C 57.847 13.345 57.953 16.405 57.621 16.87" stroke-linecap="round" />
</g>
		<g transform="matrix(1 0 0 1 -12.89 -5.82)" id="Path_10005" clip-path="url(#CLIPPATH_19)"  >
<clipPath id="CLIPPATH_19" >
	<rect transform="matrix(1 0 0 1 12.89 5.82)" id="Rectangle_1977" x="-48.033" y="-25.3975" rx="0" ry="0" width="96.066" height="50.795" />
</clipPath>
<path style="stroke: none; stroke-width: 1; stroke-dasharray: none; stroke-linecap: butt; stroke-dashoffset: 0; stroke-linejoin: miter; stroke-miterlimit: 4; fill: rgb(0,0,0); fill-rule: nonzero; opacity: 1;" vector-effect="non-scaling-stroke"  transform=" translate(-46.42, -26.36)" d="M 51.708 24.575 L 41.126 24.8 C 40.99833014124597 24.80218270830762 40.89598134302207 24.906311485631065 40.896 25.034000000000002 L 40.896 27.910000000000004 C 40.896 28.03978691621024 41.001213083789764 28.145000000000003 41.131 28.145000000000003 L 51.713 28.145000000000003 C 51.84278691621024 28.145000000000003 51.948 28.03978691621024 51.948 27.910000000000004 L 51.948 24.810000000000002 C 51.948291288272586 24.74671236999152 51.92293483043479 24.686005624896403 51.87771467996104 24.641727560890853 C 51.832494529487285 24.597449496885307 51.771267474897485 24.573376552728405 51.708 24.575000000000003 M 43.238 27.191000000000003 L 41.903 27.211000000000002 L 41.903 27.211000000000002 C 41.77348922616468 27.211000000000002 41.668499999999995 27.106010773835322 41.668499999999995 26.9765 C 41.668499999999995 26.84698922616468 41.77348922616468 26.742 41.903 26.742 L 43.238 26.722 C 43.36612814495447 26.723485064217364 43.470691728367164 26.82497324811792 43.476 26.953000000000003 C 43.47706998110642 27.01506328297714 43.45343689805482 27.075008744800158 43.41030159884409 27.119644402244298 C 43.367166299633375 27.164280059688434 43.30806359298182 27.189948154166952 43.246 27.191000000000003 M 44.36 26.053000000000004 L 41.847 26.093000000000004 L 41.847 26.093000000000004 C 41.71748922616468 26.093000000000004 41.6125 25.988010773835324 41.6125 25.858500000000003 C 41.6125 25.728989226164682 41.71748922616468 25.624000000000002 41.847 25.624000000000002 L 44.36 25.585 C 44.489234631460405 25.583067003375593 44.59556700337559 25.686265368539598 44.5975 25.8155 C 44.59943299662441 25.944734631460406 44.4962346314604 26.051067003375593 44.367 26.053 M 51.067 27.3 C 51.067 27.362060658622454 51.042346499354494 27.421579474240815 50.998462986797655 27.465462986797654 C 50.95457947424081 27.509346499354496 50.895060658622455 27.534000000000002 50.833 27.534000000000002 L 46.06 27.534000000000002 C 45.997766259391895 27.534265958587632 45.937990219721016 27.509729918143517 45.89389018805368 27.465817546185406 C 45.84979015638635 27.421905174227295 45.82499943170982 27.362234308895694 45.825 27.3 L 45.825 26.31 C 45.824989474255226 26.181927933601255 45.9279384589135 26.077641949142222 46.056000000000004 26.075999999999997 L 50.81100000000001 26.008999999999997 C 50.873750791570394 26.007927179472755 50.93430239744439 26.032106255819983 50.979054869617045 26.07610658560318 C 51.0238073417897 26.120106915386376 51.04900917008189 26.18024003901767 51.04900000000001 26.243 Z" stroke-linecap="round" />
</g>
		<g transform="matrix(1 0 0 1 -4.83 -5.77)" id="Path_10006" clip-path="url(#CLIPPATH_20)"  >
<clipPath id="CLIPPATH_20" >
	<rect transform="matrix(1 0 0 1 4.83 5.77)" id="Rectangle_1977" x="-48.033" y="-25.3975" rx="0" ry="0" width="96.066" height="50.795" />
</clipPath>
<path style="stroke: none; stroke-width: 1; stroke-dasharray: none; stroke-linecap: butt; stroke-dashoffset: 0; stroke-linejoin: miter; stroke-miterlimit: 4; fill: rgb(0,0,0); fill-rule: nonzero; opacity: 1;" vector-effect="non-scaling-stroke"  transform=" translate(-58.95, -26.29)" d="M 60.015 27.406 C 59.683 27.871 57.09 27.654 57.056 28.416999999999998 L 60.826 28.342 L 60.834 24.165 C 60.17 24.198 60.347 26.941 60.015 27.406" stroke-linecap="round" />
</g>
		<g transform="matrix(1 0 0 1 9.38 -16.33)" id="Path_10007" clip-path="url(#CLIPPATH_21)"  >
<clipPath id="CLIPPATH_21" >
	<rect transform="matrix(1 0 0 1 -9.38 16.33)" id="Rectangle_1977" x="-48.033" y="-25.3975" rx="0" ry="0" width="96.066" height="50.795" />
</clipPath>
<path style="stroke: none; stroke-width: 1; stroke-dasharray: none; stroke-linecap: butt; stroke-dashoffset: 0; stroke-linejoin: miter; stroke-miterlimit: 4; fill: rgb(0,0,0); fill-rule: nonzero; opacity: 1;" vector-effect="non-scaling-stroke"  transform=" translate(-76.22, -10.39)" d="M 76.353 10.2 C 75.01 9.267 73.666 8.339 72.3 7.435 C 70.934 6.530999999999999 69.569 5.635 68.17699999999999 4.776999999999999 Q 70.113 6.292 72.1 7.733 C 73.419 8.699 74.753 9.642999999999999 76.089 10.582 C 77.425 11.521000000000003 78.776 12.442 80.137 13.346 C 81.498 14.25 82.869 15.146 84.26 16.003 Q 82.33 14.488 80.346 13.046 C 79.028 12.08 77.694 11.136 76.357 10.198" stroke-linecap="round" />
</g>
		<g transform="matrix(1 0 0 1 7.41 -11.39)" id="Path_10008" clip-path="url(#CLIPPATH_22)"  >
<clipPath id="CLIPPATH_22" >
	<rect transform="matrix(1 0 0 1 -7.41 11.39)" id="Rectangle_1977" x="-48.033" y="-25.3975" rx="0" ry="0" width="96.066" height="50.795" />
</clipPath>
<path style="stroke: none; stroke-width: 1; stroke-dasharray: none; stroke-linecap: butt; stroke-dashoffset: 0; stroke-linejoin: miter; stroke-miterlimit: 4; fill: rgb(0,0,0); fill-rule: nonzero; opacity: 1;" vector-effect="non-scaling-stroke"  transform=" translate(-73.04, -18.04)" d="M 72.963 18.255 C 74.50699999999999 18.825 76.053 19.389 77.60799999999999 19.927 C 79.16299999999998 20.465 80.725 20.988 82.29999999999998 21.476 Q 80.03399999999998 20.489 77.73599999999999 19.585 C 76.207 18.977 74.66699999999999 18.394000000000002 73.12599999999999 17.817 C 71.585 17.24 70.03599999999999 16.684 68.47999999999999 16.146 C 66.92399999999999 15.608 65.36299999999999 15.084000000000001 63.78899999999999 14.596 Q 66.05599999999998 15.583 68.35299999999998 16.487000000000002 C 69.88199999999998 17.095000000000002 71.42199999999998 17.678 72.96299999999998 18.256" stroke-linecap="round" />
</g>
		<g transform="matrix(1 0 0 1 9.52 -5.66)" id="Path_10009" clip-path="url(#CLIPPATH_23)"  >
<clipPath id="CLIPPATH_23" >
	<rect transform="matrix(1 0 0 1 -9.52 5.66)" id="Rectangle_1977" x="-48.033" y="-25.3975" rx="0" ry="0" width="96.066" height="50.795" />
</clipPath>
<path style="stroke: none; stroke-width: 1; stroke-dasharray: none; stroke-linecap: butt; stroke-dashoffset: 0; stroke-linejoin: miter; stroke-miterlimit: 4; fill: rgb(0,0,0); fill-rule: nonzero; opacity: 1;" vector-effect="non-scaling-stroke"  transform=" translate(-77.09, -26.88)" d="M 77.052 27.106 C 78.09800000000001 27.267000000000003 79.14500000000001 27.421000000000003 80.19600000000001 27.549000000000003 C 81.24700000000001 27.677000000000003 82.296 27.794000000000004 83.36000000000001 27.862000000000002 C 82.33000000000001 27.601000000000003 81.29200000000002 27.386000000000003 80.25200000000001 27.188000000000002 C 79.212 26.990000000000002 78.16900000000001 26.812 77.12400000000001 26.644000000000002 C 76.07900000000001 26.476000000000003 75.031 26.329 73.98100000000001 26.202 C 72.93100000000001 26.075000000000003 71.88100000000001 25.957 70.81700000000001 25.888 C 71.84700000000001 26.148000000000003 72.88400000000001 26.362000000000002 73.924 26.561 C 74.964 26.759999999999998 76.007 26.936 77.052 27.106" stroke-linecap="round" />
</g>
		<g transform="matrix(1 0 0 1 8.66 -3.92)" id="Path_10010" clip-path="url(#CLIPPATH_24)"  >
<clipPath id="CLIPPATH_24" >
	<rect transform="matrix(1 0 0 1 -8.66 3.92)" id="Rectangle_1977" x="-48.033" y="-25.3975" rx="0" ry="0" width="96.066" height="50.795" />
</clipPath>
<path style="stroke: none; stroke-width: 1; stroke-dasharray: none; stroke-linecap: butt; stroke-dashoffset: 0; stroke-linejoin: miter; stroke-miterlimit: 4; fill: rgb(0,0,0); fill-rule: nonzero; opacity: 1;" vector-effect="non-scaling-stroke"  transform=" translate(-74.91, -29.56)" d="M 74.905 29.8 C 76.382 29.825 77.859 29.844 79.337 29.836000000000002 C 80.81500000000001 29.828000000000003 82.293 29.802000000000003 83.772 29.736 Q 81.56 29.556 79.345 29.466 C 77.868 29.399 76.391 29.366 74.91499999999999 29.328 C 73.43899999999998 29.29 71.961 29.285 70.48299999999999 29.293 C 69.00499999999998 29.301 67.52699999999999 29.326 66.04799999999999 29.387999999999998 Q 68.26199999999999 29.566999999999997 70.475 29.656999999999996 C 71.952 29.723999999999997 73.42899999999999 29.756999999999998 74.90599999999999 29.795999999999996" stroke-linecap="round" />
</g>
</g>
</g>
</svg>