<?xml version="1.0" encoding="UTF-8" standalone="no" ?>
<!DOCTYPE svg PUBLIC "-//W3C//DTD SVG 1.1//EN" "http://www.w3.org/Graphics/SVG/1.1/DTD/svg11.dtd">
<svg xmlns="http://www.w3.org/2000/svg" xmlns:xlink="http://www.w3.org/1999/xlink" version="1.1" width="1080" height="1080" viewBox="0 0 1080 1080" xml:space="preserve">
<desc>Created with Fabric.js 5.2.4</desc>
<defs>
</defs>
<g transform="matrix(1 0 0 1 540 540)" id="0dc73cfa-9d71-45f3-8085-935b317617b1"  >
<rect style="stroke: none; stroke-width: 1; stroke-dasharray: none; stroke-linecap: butt; stroke-dashoffset: 0; stroke-linejoin: miter; stroke-miterlimit: 4; fill: rgb(255,255,255); fill-rule: nonzero; opacity: 1; visibility: hidden;" vector-effect="non-scaling-stroke"  x="-540" y="-540" rx="0" ry="0" width="1080" height="1080" />
</g>
<g transform="matrix(1 0 0 1 540 540)" id="19f573e8-2f09-4398-9602-a8d6ff9146a4"  >
</g>
<g transform="matrix(13.33 0 0 13.33 540 540)"  >
<g style=""   >
		<g transform="matrix(1 0 0 1 5.53 4.78)"  >
<path style="stroke: rgb(0,0,0); stroke-width: 3.935; stroke-dasharray: none; stroke-linecap: butt; stroke-dashoffset: 0; stroke-linejoin: miter; stroke-miterlimit: 4; fill: none; fill-rule: nonzero; opacity: 1;" vector-effect="non-scaling-stroke"  transform=" translate(-46.03, -39.78)" d="M 74.4195 14.8602 L 74.4195 68.0632 M 17.6445 11.4902 L 17.6445 36.2422" stroke-linecap="round" />
</g>
		<g transform="matrix(1 0 0 1 -10.11 17.98)"  >
<path style="stroke: none; stroke-width: 1; stroke-dasharray: none; stroke-linecap: butt; stroke-dashoffset: 0; stroke-linejoin: miter; stroke-miterlimit: 4; fill: rgb(0,0,0); fill-rule: nonzero; opacity: 1;" vector-effect="non-scaling-stroke"  transform=" translate(-30.39, -52.98)" d="M 59.6623 56.5915 L 35.9973 37.4755 C 35.7493 37.2755 34.8623 36.5685 34.6713 36.4485 C 34.0342 36.1655 33.3165 36.1212 32.6493 36.3235 L 6.22235 39.4975 C 5.94425 39.5411 5.69181 39.6852 5.51285 39.9025 C 5.33389 40.1198 5.24085 40.3952 5.25135 40.6765 L 5.25135 48.3665 C 5.253 48.4978 5.27527 48.6281 5.31735 48.7525 L 1.70935 48.9615 C 1.42086 48.9907 1.15431 49.1286 0.963772 49.3472 C 0.773235 49.5658 0.67298 49.8487 0.683348 50.1385 L 0.683348 58.4965 C 0.68048 58.8093 0.798314 59.1113 1.01235 59.3395 C 1.10877 59.4455 1.22626 59.5302 1.35729 59.5883 C 1.48833 59.6463 1.63004 59.6763 1.77335 59.6765 L 1.79635 59.6765 L 3.36835 59.6385 C 3.2365 59.7525 3.13076 59.8937 3.05828 60.0522 C 2.98581 60.2108 2.94832 60.3831 2.94835 60.5575 L 2.94835 68.5735 C 2.93751 68.8742 3.04601 69.167 3.2502 69.3881 C 3.45439 69.6091 3.7377 69.7405 4.03835 69.7535 L 58.4263 69.7535 C 58.7269 69.7405 59.0101 69.6091 59.2141 69.388 C 59.4182 69.1669 59.5265 68.8741 59.5154 68.5735 L 59.5154 65.5155 C 59.5223 65.2532 59.44 64.9963 59.2819 64.7869 C 59.1239 64.5774 58.8995 64.4278 58.6454 64.3625 L 58.6454 61.9625 C 58.7621 62.0111 58.8869 62.0376 59.0134 62.0405 C 59.2126 62.0396 59.4074 61.9813 59.5743 61.8725 C 59.7393 61.7608 59.8738 61.6098 59.9658 61.4331 C 60.0578 61.2564 60.1044 61.0596 60.1013 60.8605 L 60.1013 57.5355 C 60.1027 57.3554 60.064 57.1773 59.9881 57.0141 C 59.9122 56.8508 59.8009 56.7065 59.6623 56.5915 Z M 34.8834 38.6765 L 58.5434 57.7885 L 58.5434 60.0295 L 34.8834 46.5205 L 34.8834 38.6765 Z M 57.0914 61.3365 L 57.0914 64.0365 L 56.0653 63.8155 L 30.3103 57.4915 L 30.3103 49.3915 L 57.0914 61.3365 Z M 6.81335 41.1155 L 33.3253 37.9385 L 33.3253 46.2325 L 6.81335 47.8235 L 6.81335 41.1155 Z M 2.24035 50.6155 L 28.7513 49.0255 L 28.7513 57.3355 L 2.24035 57.9775 L 2.24035 50.6155 Z M 4.51035 61.0425 L 31.0163 60.4155 L 31.0163 68.0695 L 4.50935 68.0695 L 4.51035 61.0425 Z M 57.9613 68.0615 L 32.5763 68.0615 L 32.5763 60.5735 L 57.9594 65.9285 L 57.9613 68.0615 Z" stroke-linecap="round" />
</g>
		<g transform="matrix(1 0 0 1 -21.11 8.32)"  >
<path style="stroke: none; stroke-width: 1; stroke-dasharray: none; stroke-linecap: butt; stroke-dashoffset: 0; stroke-linejoin: miter; stroke-miterlimit: 4; fill: rgb(0,0,0); fill-rule: nonzero; opacity: 1;" vector-effect="non-scaling-stroke"  transform=" translate(-19.39, -43.32)" d="M 26.0003 40.2035 L 12.6273 41.6905 C 12.5483 41.7042 12.4767 41.7457 12.4253 41.8075 C 12.374 41.8692 12.3464 41.9472 12.3473 42.0275 L 12.3473 46.1005 C 12.3433 46.1857 12.3732 46.2691 12.4306 46.3323 C 12.488 46.3955 12.5681 46.4333 12.6533 46.4375 L 12.6843 46.4375 L 26.1363 45.4265 C 26.2173 45.415 26.2912 45.3745 26.3444 45.3125 C 26.3976 45.2505 26.4264 45.1712 26.4253 45.0895 L 26.3503 40.5395 C 26.3522 40.497 26.3457 40.4545 26.3311 40.4145 C 26.3165 40.3746 26.2942 40.3379 26.2654 40.3065 C 26.2366 40.2752 26.2019 40.2499 26.1632 40.2321 C 26.1246 40.2142 26.0829 40.2041 26.0403 40.2025 L 26.0123 40.2025 M 15.1993 44.6325 L 13.5363 44.7815 L 13.5113 44.7815 C 13.4308 44.778 13.3544 44.7445 13.2974 44.6874 C 13.2403 44.6304 13.2068 44.554 13.2033 44.4735 C 13.1949 44.3876 13.2198 44.3017 13.2729 44.2336 C 13.3259 44.1655 13.403 44.1204 13.4883 44.1075 L 15.1473 43.9605 C 15.1892 43.9579 15.2312 43.9636 15.2708 43.9773 C 15.3104 43.9911 15.3469 44.0125 15.3783 44.0403 C 15.4096 44.0682 15.4351 44.102 15.4533 44.1398 C 15.4715 44.1776 15.4821 44.2186 15.4843 44.2605 L 15.4843 44.2675 C 15.4922 44.353 15.4671 44.4384 15.4141 44.506 C 15.3611 44.5737 15.2843 44.6186 15.1993 44.6315 M 16.6453 42.9565 L 13.5453 43.2315 L 13.5153 43.2315 C 13.4344 43.228 13.3578 43.1942 13.3007 43.1367 C 13.2436 43.0793 13.2103 43.0024 13.2073 42.9215 C 13.1995 42.8359 13.2246 42.7506 13.2776 42.6829 C 13.3306 42.6152 13.4074 42.5704 13.4923 42.5575 L 16.5923 42.2845 C 16.6768 42.2798 16.7596 42.3088 16.8227 42.365 C 16.8859 42.4212 16.9242 42.5001 16.9293 42.5845 C 16.937 42.67 16.9117 42.7552 16.8588 42.8228 C 16.8059 42.8904 16.7292 42.9353 16.6443 42.9485 M 25.0693 44.0655 C 25.0705 44.1469 25.042 44.2259 24.9892 44.2879 C 24.9364 44.3499 24.8629 44.3906 24.7823 44.4025 L 18.4633 44.9475 C 18.4208 44.9493 18.3783 44.9428 18.3382 44.9282 C 18.2982 44.9137 18.2615 44.8914 18.2301 44.8626 C 18.1987 44.8338 18.1733 44.7991 18.1553 44.7604 C 18.1373 44.7218 18.1271 44.68 18.1253 44.6375 L 18.1253 43.0995 C 18.1246 43.0181 18.1532 42.9391 18.2059 42.877 C 18.2586 42.815 18.3319 42.7739 18.4123 42.7615 L 24.7333 42.2175 C 24.8186 42.2134 24.902 42.2433 24.9652 42.3007 C 25.0284 42.3581 25.0662 42.4382 25.0703 42.5235 C 25.0712 42.5338 25.0712 42.5441 25.0703 42.5545 L 25.0693 44.0655 Z" stroke-linecap="round" />
</g>
		<g transform="matrix(1 0 0 1 -31.09 9.25)"  >
<path style="stroke: none; stroke-width: 1; stroke-dasharray: none; stroke-linecap: butt; stroke-dashoffset: 0; stroke-linejoin: miter; stroke-miterlimit: 4; fill: rgb(0,0,0); fill-rule: nonzero; opacity: 1;" vector-effect="non-scaling-stroke"  transform=" translate(-9.41, -44.25)" d="M 7.50935 47.2415 C 8.40335 46.5415 8.13235 44.1225 8.66835 42.8985 C 9.20435 41.6745 10.6603 42.4805 11.3133 41.2595 L 7.50335 41.6825 L 7.50935 47.2415 Z" stroke-linecap="round" />
</g>
		<g transform="matrix(1 0 0 1 -10.39 7.45)"  >
<path style="stroke: none; stroke-width: 1; stroke-dasharray: none; stroke-linecap: butt; stroke-dashoffset: 0; stroke-linejoin: miter; stroke-miterlimit: 4; fill: rgb(0,0,0); fill-rule: nonzero; opacity: 1;" vector-effect="non-scaling-stroke"  transform=" translate(-30.11, -42.45)" d="M 31.4963 44.0975 C 31.0553 44.7715 27.6833 44.8165 27.6393 45.9175 L 32.5733 45.4445 L 32.4263 38.9765 C 31.5443 39.0235 31.9433 43.4265 31.5013 44.0965" stroke-linecap="round" />
</g>
		<g transform="matrix(1 0 0 1 -25.94 18.75)"  >
<path style="stroke: none; stroke-width: 1; stroke-dasharray: none; stroke-linecap: butt; stroke-dashoffset: 0; stroke-linejoin: miter; stroke-miterlimit: 4; fill: rgb(0,0,0); fill-rule: nonzero; opacity: 1;" vector-effect="non-scaling-stroke"  transform=" translate(-14.56, -53.75)" d="M 21.4313 51.1285 L 7.67435 51.7765 C 7.59072 51.7836 7.51301 51.8225 7.4572 51.8852 C 7.40139 51.9479 7.37174 52.0296 7.37435 52.1135 L 7.37435 56.0285 C 7.37083 56.1142 7.4015 56.1979 7.45962 56.2611 C 7.51774 56.3243 7.59857 56.3618 7.68435 56.3655 L 7.69435 56.3655 L 21.4513 55.9325 C 21.5353 55.9263 21.6136 55.8877 21.6696 55.8248 C 21.7256 55.7619 21.755 55.6796 21.7513 55.5955 L 21.7513 51.4635 C 21.7554 51.3782 21.7255 51.2948 21.6681 51.2316 C 21.6107 51.1684 21.5306 51.1306 21.4453 51.1265 L 21.4333 51.1265 M 10.5973 54.9845 L 8.72335 55.0605 L 8.71235 55.0605 C 8.66809 55.0613 8.62412 55.0533 8.58293 55.0371 C 8.54174 55.0209 8.50415 54.9967 8.4723 54.966 C 8.44045 54.9353 8.41496 54.8986 8.3973 54.858 C 8.37963 54.8174 8.37014 54.7737 8.36935 54.7295 C 8.36856 54.6852 8.3765 54.6412 8.3927 54.6 C 8.40891 54.5589 8.43307 54.5213 8.46381 54.4894 C 8.49455 54.4576 8.53126 54.4321 8.57184 54.4144 C 8.61243 54.3967 8.65609 54.3873 8.70035 54.3865 L 10.5743 54.3095 C 10.6165 54.3092 10.6582 54.3172 10.6972 54.3331 C 10.7362 54.349 10.7716 54.3725 10.8016 54.4021 C 10.8315 54.4318 10.8552 54.467 10.8715 54.5058 C 10.8878 54.5447 10.8962 54.5864 10.8963 54.6285 L 10.8963 54.6345 C 10.8999 54.7198 10.8709 54.8034 10.8152 54.8681 C 10.7595 54.9329 10.6813 54.9742 10.5963 54.9835 M 11.8013 53.3155 L 8.63935 53.4525 L 8.62335 53.4525 C 8.57773 53.4556 8.53194 53.4494 8.48879 53.4343 C 8.44564 53.4191 8.40602 53.3954 8.37235 53.3644 C 8.33867 53.3335 8.31164 53.296 8.29291 53.2543 C 8.27418 53.2126 8.26414 53.1675 8.26339 53.1218 C 8.26264 53.076 8.27121 53.0306 8.28857 52.9883 C 8.30592 52.946 8.33171 52.9077 8.36436 52.8757 C 8.397 52.8436 8.43583 52.8186 8.47846 52.8021 C 8.52109 52.7855 8.56665 52.7778 8.61235 52.7795 L 11.7743 52.6425 C 11.8601 52.643 11.9422 52.6773 12.0029 52.7379 C 12.0635 52.7986 12.0978 52.8807 12.0983 52.9665 C 12.1027 53.0522 12.074 53.1364 12.0182 53.2017 C 11.9624 53.2669 11.8837 53.3084 11.7983 53.3175 M 20.4713 54.6175 C 20.475 54.7016 20.4456 54.7839 20.3896 54.8468 C 20.3336 54.9097 20.2553 54.9483 20.1713 54.9545 L 13.8513 55.2375 C 13.8087 55.2375 13.7664 55.2291 13.727 55.2127 C 13.6875 55.1964 13.6517 55.1725 13.6215 55.1423 C 13.5914 55.1121 13.5674 55.0763 13.5511 55.0368 C 13.5348 54.9974 13.5263 54.9551 13.5263 54.9125 L 13.5263 53.3805 C 13.523 53.2964 13.5524 53.2143 13.6083 53.1514 C 13.6643 53.0886 13.7424 53.0499 13.8263 53.0435 L 20.1463 52.7605 C 20.1888 52.7603 20.231 52.7686 20.2703 52.7848 C 20.3096 52.8009 20.3453 52.8247 20.3754 52.8547 C 20.4055 52.8847 20.4294 52.9204 20.4457 52.9596 C 20.462 52.9989 20.4703 53.041 20.4703 53.0835 L 20.4703 54.6145 L 20.4713 54.6175 Z" stroke-linecap="round" />
</g>
		<g transform="matrix(1 0 0 1 -35.77 19.1)"  >
<path style="stroke: none; stroke-width: 1; stroke-dasharray: none; stroke-linecap: butt; stroke-dashoffset: 0; stroke-linejoin: miter; stroke-miterlimit: 4; fill: rgb(0,0,0); fill-rule: nonzero; opacity: 1;" vector-effect="non-scaling-stroke"  transform=" translate(-4.73, -54.1)" d="M 2.89335 56.9975 C 3.78735 56.2975 3.54335 53.9975 4.07235 52.7735 C 4.60135 51.5495 5.68535 52.2585 6.57235 51.1975 L 2.89335 51.4415 L 2.89335 56.9975 Z" stroke-linecap="round" />
</g>
		<g transform="matrix(1 0 0 1 -14.99 18.32)"  >
<path style="stroke: none; stroke-width: 1; stroke-dasharray: none; stroke-linecap: butt; stroke-dashoffset: 0; stroke-linejoin: miter; stroke-miterlimit: 4; fill: rgb(0,0,0); fill-rule: nonzero; opacity: 1;" vector-effect="non-scaling-stroke"  transform=" translate(-25.51, -53.32)" d="M 26.8843 55.1495 C 26.4433 55.8235 22.9953 55.5065 22.9513 56.6035 L 27.9583 56.4955 L 28.0643 50.0295 C 27.1813 50.0765 27.3213 54.4795 26.8843 55.1495 Z" stroke-linecap="round" />
</g>
		<g transform="matrix(1 0 0 1 -23.46 29.33)"  >
<path style="stroke: none; stroke-width: 1; stroke-dasharray: none; stroke-linecap: butt; stroke-dashoffset: 0; stroke-linejoin: miter; stroke-miterlimit: 4; fill: rgb(0,0,0); fill-rule: nonzero; opacity: 1;" vector-effect="non-scaling-stroke"  transform=" translate(-17.04, -64.33)" d="M 24.0733 61.7555 L 9.99635 62.0935 C 9.91235 62.0996 9.83405 62.1383 9.77805 62.2012 C 9.72205 62.2641 9.69274 62.3463 9.69635 62.4305 L 9.69635 66.5695 C 9.6931 66.6555 9.72413 66.7393 9.78263 66.8025 C 9.84113 66.8657 9.92231 66.9031 10.0083 66.9065 L 24.0713 66.9065 C 24.1139 66.9048 24.1556 66.8947 24.1943 66.8769 C 24.2329 66.859 24.2676 66.8337 24.2964 66.8024 C 24.3252 66.7711 24.3475 66.7344 24.3621 66.6944 C 24.3767 66.6544 24.3832 66.612 24.3813 66.5695 L 24.3813 62.0935 C 24.3831 62.0507 24.3764 62.008 24.3616 61.9678 C 24.3468 61.9277 24.3242 61.8908 24.2951 61.8594 C 24.266 61.828 24.231 61.8027 24.1921 61.7848 C 24.1532 61.767 24.1111 61.757 24.0683 61.7555 L 24.0623 61.7555 M 12.8133 65.5255 L 11.0373 65.5535 C 10.948 65.5535 10.8623 65.518 10.7991 65.4548 C 10.7359 65.3916 10.7003 65.3058 10.7003 65.2165 C 10.7003 65.1271 10.7359 65.0414 10.7991 64.9782 C 10.8623 64.915 10.948 64.8795 11.0373 64.8795 L 12.8113 64.8515 C 12.8972 64.8566 12.9779 64.8943 13.0368 64.957 C 13.0958 65.0196 13.1285 65.1024 13.1283 65.1885 C 13.1311 65.2735 13.1008 65.3563 13.0437 65.4193 C 12.9866 65.4824 12.9072 65.5208 12.8223 65.5265 M 14.3043 63.8875 L 10.9533 63.9475 C 10.864 63.9475 10.7783 63.912 10.7151 63.8488 C 10.6519 63.7856 10.6163 63.6998 10.6163 63.6105 C 10.6163 63.5211 10.6519 63.4354 10.7151 63.3722 C 10.7783 63.309 10.864 63.2735 10.9533 63.2735 L 14.2933 63.2165 C 14.339 63.2134 14.3848 63.2197 14.4279 63.235 C 14.4711 63.2502 14.5107 63.2741 14.5443 63.3051 C 14.5779 63.3362 14.6048 63.3737 14.6234 63.4155 C 14.6421 63.4573 14.652 63.5025 14.6526 63.5482 C 14.6532 63.594 14.6445 63.6394 14.627 63.6816 C 14.6095 63.7239 14.5836 63.7622 14.5508 63.7941 C 14.518 63.826 14.4791 63.851 14.4364 63.8673 C 14.3937 63.8837 14.3481 63.8913 14.3023 63.8895 M 23.2023 65.6845 C 23.2042 65.7269 23.1977 65.7693 23.1832 65.8092 C 23.1687 65.8491 23.1464 65.8857 23.1177 65.917 C 23.089 65.9483 23.0544 65.9737 23.0159 65.9916 C 22.9774 66.0095 22.9358 66.0197 22.8933 66.0215 L 16.5683 66.0215 C 16.4824 66.0176 16.4015 65.9798 16.3432 65.9165 C 16.285 65.8532 16.2541 65.7694 16.2573 65.6835 L 16.2573 64.2615 C 16.2546 64.1759 16.2854 64.0928 16.3431 64.0296 C 16.4008 63.9665 16.4809 63.9284 16.5663 63.9235 L 22.8863 63.8235 C 22.9289 63.8245 22.9707 63.8339 23.0096 63.8512 C 23.0485 63.8684 23.0835 63.8932 23.1128 63.924 C 23.1421 63.9549 23.1649 63.9912 23.1801 64.0309 C 23.1953 64.0706 23.2025 64.113 23.2013 64.1555 L 23.2023 65.6845 Z" stroke-linecap="round" />
</g>
		<g transform="matrix(1 0 0 1 -33.62 29.52)"  >
<path style="stroke: none; stroke-width: 1; stroke-dasharray: none; stroke-linecap: butt; stroke-dashoffset: 0; stroke-linejoin: miter; stroke-miterlimit: 4; fill: rgb(0,0,0); fill-rule: nonzero; opacity: 1;" vector-effect="non-scaling-stroke"  transform=" translate(-6.88, -64.52)" d="M 5.12235 67.3325 C 6.01635 66.6325 5.87135 64.3585 6.40435 63.1325 C 6.93735 61.9065 7.75335 62.7645 8.64335 61.7015 L 5.21635 61.8015 L 5.12235 67.3325 Z" stroke-linecap="round" />
</g>
		<g transform="matrix(1 0 0 1 -12.73 29.39)"  >
<path style="stroke: none; stroke-width: 1; stroke-dasharray: none; stroke-linecap: butt; stroke-dashoffset: 0; stroke-linejoin: miter; stroke-miterlimit: 4; fill: rgb(0,0,0); fill-rule: nonzero; opacity: 1;" vector-effect="non-scaling-stroke"  transform=" translate(-27.77, -64.39)" d="M 29.1933 65.9935 C 28.7523 66.6675 25.3043 66.3505 25.2603 67.4475 L 30.2723 67.3405 L 30.2843 61.3305 C 29.4013 61.3775 29.6373 65.3245 29.1953 65.9935" stroke-linecap="round" />
</g>
		<g transform="matrix(1 0 0 1 6.19 14.41)"  >
<path style="stroke: none; stroke-width: 1; stroke-dasharray: none; stroke-linecap: butt; stroke-dashoffset: 0; stroke-linejoin: miter; stroke-miterlimit: 4; fill: rgb(0,0,0); fill-rule: nonzero; opacity: 1;" vector-effect="non-scaling-stroke"  transform=" translate(-46.69, -49.41)" d="M 46.8694 49.1425 C 45.0984 47.7815 43.3304 46.4235 41.5294 45.0985 C 39.7284 43.7735 37.9294 42.4695 36.0894 41.2055 C 37.7867 42.6801 39.506 44.1191 41.2473 45.5225 C 42.9843 46.9345 44.7473 48.3155 46.5043 49.6885 C 48.2613 51.0615 50.0433 52.4085 51.8433 53.7335 C 53.6433 55.0585 55.4434 56.3625 57.2854 57.6245 C 55.59 56.1505 53.8704 54.7115 52.1264 53.3075 C 50.3884 51.8955 48.6314 50.5175 46.8684 49.1435" stroke-linecap="round" />
</g>
		<g transform="matrix(1 0 0 1 3.5 21.48)"  >
<path style="stroke: none; stroke-width: 1; stroke-dasharray: none; stroke-linecap: butt; stroke-dashoffset: 0; stroke-linejoin: miter; stroke-miterlimit: 4; fill: rgb(0,0,0); fill-rule: nonzero; opacity: 1;" vector-effect="non-scaling-stroke"  transform=" translate(-44, -56.48)" d="M 43.8913 56.7935 C 45.9353 57.6365 47.9813 58.4785 50.0403 59.2775 C 52.0993 60.0765 54.1683 60.8565 56.2533 61.5845 C 54.2533 60.6118 52.2407 59.6785 50.2153 58.7845 C 48.1933 57.8845 46.1543 57.0185 44.1153 56.1645 C 42.0763 55.3105 40.0243 54.4815 37.9643 53.6835 C 35.9043 52.8855 33.8373 52.1045 31.7533 51.3765 C 33.7533 52.3478 35.7657 53.2811 37.7903 54.1765 C 39.8123 55.0765 41.8513 55.9425 43.8903 56.7985" stroke-linecap="round" />
</g>
		<g transform="matrix(1 0 0 1 6.21 29.75)"  >
<path style="stroke: none; stroke-width: 1; stroke-dasharray: none; stroke-linecap: butt; stroke-dashoffset: 0; stroke-linejoin: miter; stroke-miterlimit: 4; fill: rgb(0,0,0); fill-rule: nonzero; opacity: 1;" vector-effect="non-scaling-stroke"  transform=" translate(-46.71, -64.75)" d="M 46.6623 65.0885 C 48.0503 65.3365 49.4393 65.5775 50.8343 65.7775 C 52.2293 65.9775 53.6263 66.1655 55.0343 66.2835 C 53.6693 65.8905 52.2923 65.5655 50.9143 65.2625 C 49.5363 64.9595 48.1503 64.6865 46.7653 64.4195 C 45.3803 64.1525 43.9883 63.9325 42.5913 63.7325 C 41.1943 63.5325 39.7993 63.3445 38.3913 63.2265 C 39.7583 63.6195 41.1333 63.9445 42.5123 64.2475 C 43.8913 64.5505 45.2773 64.8225 46.6623 65.0905" stroke-linecap="round" />
</g>
		<g transform="matrix(1 0 0 1 5.04 32.26)"  >
<path style="stroke: none; stroke-width: 1; stroke-dasharray: none; stroke-linecap: butt; stroke-dashoffset: 0; stroke-linejoin: miter; stroke-miterlimit: 4; fill: rgb(0,0,0); fill-rule: nonzero; opacity: 1;" vector-effect="non-scaling-stroke"  transform=" translate(-45.54, -67.26)" d="M 45.5263 67.5995 C 47.4893 67.6595 49.4523 67.7125 51.4263 67.7255 C 53.4003 67.7385 55.3553 67.7255 57.3263 67.6635 C 55.3577 67.4635 53.3943 67.3075 51.4363 67.1955 C 49.4753 67.0755 47.5134 66.9955 45.5504 66.9215 C 43.5874 66.8475 41.6243 66.8095 39.6503 66.7955 C 37.6763 66.7815 35.7203 66.7955 33.7503 66.8575 C 35.7103 67.0535 37.6707 67.2075 39.6313 67.3195 C 41.5923 67.4395 43.5563 67.5195 45.5173 67.5945" stroke-linecap="round" />
</g>
		<g transform="matrix(1 0 0 1 4.59 -24.79)"  >
<path style="stroke: none; stroke-width: 1; stroke-dasharray: none; stroke-linecap: butt; stroke-dashoffset: 0; stroke-linejoin: miter; stroke-miterlimit: 4; fill: rgb(0,0,0); fill-rule: nonzero; opacity: 1;" vector-effect="non-scaling-stroke"  transform=" translate(-45.09, -10.21)" d="M 10.1593 20.2975 L 45.3913 6.57346 L 80.3734 20.2975 L 80.0223 13.8505 L 45.0383 0.126465 L 9.81035 13.8495 L 10.1593 20.2975 Z" stroke-linecap="round" />
</g>
		<g transform="matrix(1 0 0 1 5 -13)"  >
<path style="stroke: none; stroke-width: 1; stroke-dasharray: none; stroke-linecap: butt; stroke-dashoffset: 0; stroke-linejoin: miter; stroke-miterlimit: 4; fill: rgb(0,0,0); fill-rule: nonzero; opacity: 1;" vector-effect="non-scaling-stroke"  transform=" translate(-45.5, -22)" d="M 65.1254 22.9335 L 66.1983 22.9335 L 66.1983 19.8615 L 24.7963 19.8615 L 24.7963 23.3025 L 25.9183 23.3025 L 25.9183 24.1335 L 65.1254 24.1335 L 65.1254 22.9335 Z" stroke-linecap="round" />
</g>
		<g transform="matrix(1 0 0 1 5.02 12.44)"  >
<path style="stroke: none; stroke-width: 1; stroke-dasharray: none; stroke-linecap: butt; stroke-dashoffset: 0; stroke-linejoin: miter; stroke-miterlimit: 4; fill: rgb(0,0,0); fill-rule: nonzero; opacity: 1;" vector-effect="non-scaling-stroke"  transform=" translate(-45.52, -47.44)" d="M 25.9183 26.8095 L 25.9183 34.6725 L 35.2763 34.5305 L 61.7883 55.1075 L 61.7883 68.0605 L 65.1264 68.0605 L 65.1264 26.8095 L 25.9183 26.8095 Z" stroke-linecap="round" />
</g>
</g>
</g>
</svg>